<svg xmlns="http://www.w3.org/2000/svg" width="48" height="48" viewBox="0 0 24 24" fill="none" stroke="#22c55e" stroke-width="2" stroke-linecap="round" stroke-linejoin="round">
  <path d="M22 16.92v3a2 2 0 0 1-2.18 2 19.79 19.79 0 0 1-8.63-3.07 19.5 19.5 0 0 1-6-6 19.79 19.79 0 0 1-3.07-8.67A2 2 0 0 1 4.11 2h3a2 2 0 0 1 2 1.72 12.84 12.84 0 0 0 .7 2.81 2 2 0 0 1-.45 2.11L8.09 9.91a16 16 0 0 0 6 6l2.18-2.18a2 2 0 0 1 2.11-.45 12.84 12.84 0 0 0 2.81.7A2 2 0 0 1 22 16.92z"/>
  <polyline points="15 7 17.5 9.5 22 5">
    <animate attributeName="stroke-dasharray" from="0, 20" to="20, 0" dur="0.5s" fill="freeze" />
  </polyline>
</svg>
<svg xmlns="http://www.w3.org/2000/svg" width="48" height="48" viewBox="0 0 24 24" fill="none" stroke="#ef4444" stroke-width="2" stroke-linecap="round" stroke-linejoin="round">
  <path d="M22 16.92v3a2 2 0 0 1-2.18 2 19.79 19.79 0 0 1-8.63-3.07 19.5 19.5 0 0 1-6-6 19.79 19.79 0 0 1-3.07-8.67A2 2 0 0 1 4.11 2h3a2 2 0 0 1 2 1.72 12.84 12.84 0 0 0 .7 2.81 2 2 0 0 1-.45 2.11L8.09 9.91a16 16 0 0 0 6 6l2.18-2.18a2 2 0 0 1 2.11-.45 12.84 12.84 0 0 0 2.81.7A2 2 0 0 1 22 16.92z" opacity="0.5"/>
  <g>
    <line x1="18" y1="6" x2="24" y2="12" />
    <line x1="24" y1="6" x2="18" y2="12" />
    <animateTransform attributeName="transform" type="scale" values="1;1.1;1" dur="1s" repeatCount="indefinite" additive="sum" pivot="21 9" />
  </g>
</svg>
<svg xmlns="http://www.w3.org/2000/svg" width="48" height="48" viewBox="0 0 24 24" fill="none" stroke="#94a3b8" stroke-width="2" stroke-linecap="round" stroke-linejoin="round">
  <path d="M21 12a9 9 0 1 1-6.219-8.56">
    <animateTransform attributeName="transform" type="rotate" from="0 12 12" to="360 12 12" dur="1s" repeatCount="indefinite" />
  </path>
</svg>

